<svg xmlns="http://www.w3.org/2000/svg" width="256" height="256" viewBox="0 0 100 100"><rect width="100" height="100" rx="20" fill="#1c1cbd"></rect><path fill="#fff" d="M45.69 32.23L45.69 32.23Q45.69 33.27 45.05 34.02Q44.41 34.77 43.59 35.15L43.59 35.15Q41.64 33.80 39.01 32.60Q36.39 31.40 32.19 31.40L32.19 31.40Q28.74 31.40 25.81 32.60Q22.89 33.80 20.71 36.13Q18.54 38.45 17.30 41.97Q16.06 45.50 16.06 50.08L16.06 50.08Q16.06 54.72 17.26 58.17Q18.46 61.63 20.60 63.95Q22.74 66.27 25.74 67.44Q28.74 68.60 32.41 68.60L32.41 68.60Q36.31 68.60 39.20 67.51Q42.09 66.42 44.04 64.92L44.04 64.92Q44.79 65.22 45.46 66.01Q46.14 66.80 46.14 67.85L46.14 67.85Q46.14 69.42 44.34 70.70L44.34 70.70Q42.61 71.90 39.61 72.84Q36.61 73.77 31.96 73.77L31.96 73.77Q27.24 73.77 23.19 72.27Q19.14 70.77 16.17 67.81Q13.21 64.85 11.49 60.42Q9.76 56 9.76 50.08L9.76 50.08Q9.76 44.15 11.52 39.69Q13.29 35.23 16.29 32.23Q19.29 29.23 23.30 27.73Q27.31 26.23 31.74 26.23L31.74 26.23Q34.81 26.23 37.40 26.75Q39.99 27.27 41.82 28.14Q43.66 29 44.67 30.09Q45.69 31.17 45.69 32.23ZM89.79 32.23L89.79 32.23Q89.79 33.27 89.15 34.02Q88.51 34.77 87.69 35.15L87.69 35.15Q85.74 33.80 83.11 32.60Q80.49 31.40 76.29 31.40L76.29 31.40Q72.84 31.40 69.91 32.60Q66.99 33.80 64.81 36.13Q62.64 38.45 61.40 41.97Q60.16 45.50 60.16 50.08L60.16 50.08Q60.16 54.72 61.36 58.17Q62.56 61.63 64.70 63.95Q66.84 66.27 69.84 67.44Q72.84 68.60 76.51 68.60L76.51 68.60Q80.41 68.60 83.30 67.51Q86.19 66.42 88.14 64.92L88.14 64.92Q88.89 65.22 89.56 66.01Q90.24 66.80 90.24 67.85L90.24 67.85Q90.24 69.42 88.44 70.70L88.44 70.70Q86.71 71.90 83.71 72.84Q80.71 73.77 76.06 73.77L76.06 73.77Q71.34 73.77 67.29 72.27Q63.24 70.77 60.27 67.81Q57.31 64.85 55.59 60.42Q53.86 56 53.86 50.08L53.86 50.08Q53.86 44.15 55.63 39.69Q57.39 35.23 60.39 32.23Q63.39 29.23 67.40 27.73Q71.41 26.23 75.84 26.23L75.84 26.23Q78.91 26.23 81.50 26.75Q84.09 27.27 85.92 28.14Q87.76 29 88.78 30.09Q89.79 31.17 89.79 32.23Z"></path></svg>